<?xml version="1.0" encoding="UTF-8"?>
<!DOCTYPE svg PUBLIC "-//W3C//DTD SVG 1.1//EN" "http://www.w3.org/Graphics/SVG/1.1/DTD/svg11.dtd">
<svg xmlns="http://www.w3.org/2000/svg" version="1.1" width="1520px" height="689px" style="shape-rendering:geometricPrecision; text-rendering:geometricPrecision; image-rendering:optimizeQuality; fill-rule:evenodd; clip-rule:evenodd" xmlns:xlink="http://www.w3.org/1999/xlink">
<g><path style="opacity:1" fill="#fefefe" d="M -0.5,-0.5 C 506.167,-0.5 1012.83,-0.5 1519.5,-0.5C 1519.5,121.833 1519.5,244.167 1519.5,366.5C 1479.17,366.5 1438.83,366.5 1398.5,366.5C 1261.17,366.45 1123.83,366.784 986.5,367.5C 979.833,367.5 973.167,367.5 966.5,367.5C 966.182,372.032 966.515,376.366 967.5,380.5C 991.331,381.167 1015.33,381.5 1039.5,381.5C 1199.5,380.728 1359.5,380.061 1519.5,379.5C 1519.5,482.5 1519.5,585.5 1519.5,688.5C 1012.83,688.5 506.167,688.5 -0.5,688.5C -0.5,587.167 -0.5,485.833 -0.5,384.5C 159.167,384.257 318.834,383.757 478.5,383C 503.337,382.832 528.003,382.332 552.5,381.5C 552.5,377.5 552.5,373.5 552.5,369.5C 368.166,369.614 183.833,369.947 -0.5,370.5C -0.5,246.833 -0.5,123.167 -0.5,-0.5 Z"/></g>
<g><path style="opacity:1" fill="#d9d9d9" d="M 261.5,141.5 C 288.863,137.908 311.863,146.075 330.5,166C 323.655,173.677 316.655,181.177 309.5,188.5C 296.125,171.324 279.458,167.157 259.5,176C 239.057,194.625 234.89,216.458 247,241.5C 259.981,261.26 276.814,265.426 297.5,254C 304.494,248.511 308.161,241.344 308.5,232.5C 297.5,232.5 286.5,232.5 275.5,232.5C 275.5,224.167 275.5,215.833 275.5,207.5C 297.5,207.5 319.5,207.5 341.5,207.5C 341.667,218.505 341.5,229.505 341,240.5C 333.918,267.246 316.751,283.413 289.5,289C 248.946,293.965 221.779,277.132 208,238.5C 199.254,203.124 209.087,174.29 237.5,152C 245.37,147.887 253.37,144.387 261.5,141.5 Z"/></g>
<g><path style="opacity:1" fill="#e5e5e5" d="M 1216.5,142.5 C 1206.73,142.092 1197.07,142.758 1187.5,144.5C 1189.56,143.224 1191.9,142.39 1194.5,142C 1202.01,141.178 1209.35,141.345 1216.5,142.5 Z"/></g>
<g><path style="opacity:1" fill="#d9d9d9" d="M 1216.5,142.5 C 1223.5,144.218 1230.5,146.052 1237.5,148C 1241.08,150.041 1244.58,152.208 1248,154.5C 1245.22,163.073 1241.55,171.407 1237,179.5C 1236.59,179.957 1236.09,180.291 1235.5,180.5C 1224.22,173.431 1211.89,170.598 1198.5,172C 1195.7,173.793 1193.2,175.96 1191,178.5C 1190.33,181.833 1190.33,185.167 1191,188.5C 1193.2,191.04 1195.7,193.207 1198.5,195C 1210.49,199.922 1222.16,205.588 1233.5,212C 1255.46,227.915 1259.63,247.748 1246,271.5C 1235.32,282.923 1222.15,289.09 1206.5,290C 1186.33,291.29 1167.66,286.624 1150.5,276C 1148.98,274.315 1147.32,272.815 1145.5,271.5C 1150.51,262.137 1156.01,253.137 1162,244.5C 1169.54,250.856 1178.04,255.522 1187.5,258.5C 1190.19,259.991 1193.19,260.657 1196.5,260.5C 1198.7,260.495 1200.7,260.162 1202.5,259.5C 1214.9,258.677 1219.4,252.343 1216,240.5C 1213.1,236.939 1209.6,234.106 1205.5,232C 1194.62,227.604 1184.28,222.271 1174.5,216C 1156.62,200.971 1153.12,183.138 1164,162.5C 1170.26,154.406 1178.09,148.406 1187.5,144.5C 1197.07,142.758 1206.73,142.092 1216.5,142.5 Z"/></g>
<g><path style="opacity:1" fill="#eaeaea" d="M 691.5,173.5 C 691.167,173.5 690.833,173.5 690.5,173.5C 706.658,172.504 722.991,172.17 739.5,172.5C 739.5,163.167 739.5,153.833 739.5,144.5C 712.5,144.5 685.5,144.5 658.5,144.5C 658.5,192.167 658.5,239.833 658.5,287.5C 658.167,287.5 657.833,287.5 657.5,287.5C 657.5,239.5 657.5,191.5 657.5,143.5C 685.167,143.5 712.833,143.5 740.5,143.5C 740.5,153.5 740.5,163.5 740.5,173.5C 724.167,173.5 707.833,173.5 691.5,173.5 Z"/></g>
<g><path style="opacity:1" fill="#ececec" d="M 782.5,144.5 C 770.12,143.854 758.12,144.521 746.5,146.5C 745.596,145.791 745.263,144.791 745.5,143.5C 758.011,143.171 770.345,143.505 782.5,144.5 Z"/></g>
<g><path style="opacity:1" fill="#ececec" d="M 945.5,147.5 C 945.5,146.5 945.5,145.5 945.5,144.5C 933.249,143.886 921.249,144.553 909.5,146.5C 909.5,145.5 909.5,144.5 909.5,143.5C 921.833,143.5 934.167,143.5 946.5,143.5C 946.768,145.099 946.434,146.432 945.5,147.5 Z"/></g>
<g><path style="opacity:1" fill="#d9d9d9" d="M 633.5,163.5 C 633.792,175.041 634.792,186.374 636.5,197.5C 638.494,212.102 639.827,226.768 640.5,241.5C 640.792,253.041 641.792,264.374 643.5,275.5C 644.483,279.298 644.817,283.298 644.5,287.5C 633.5,287.5 622.5,287.5 611.5,287.5C 610.236,259.062 607.902,230.729 604.5,202.5C 594.986,230.878 584.986,259.045 574.5,287C 567.918,287.81 561.418,287.643 555,286.5C 545.85,258.546 536.016,230.879 525.5,203.5C 522.504,229.776 520.171,256.11 518.5,282.5C 517.549,283.919 517.216,285.585 517.5,287.5C 495.833,287.5 474.167,287.5 452.5,287.5C 448.595,278.457 445.262,269.124 442.5,259.5C 423.821,259.167 405.155,259.5 386.5,260.5C 383.133,269.613 379.8,278.613 376.5,287.5C 364.655,287.828 352.988,287.495 341.5,286.5C 360.732,239.378 379.732,192.212 398.5,145C 409.077,144.181 419.577,144.348 430,145.5C 448.333,190.833 466.667,236.167 485,281.5C 490.097,235.938 494.263,190.271 497.5,144.5C 509.747,144.178 521.914,144.512 534,145.5C 544.137,172.245 554.471,198.912 565,225.5C 575.832,198.855 586.332,172.189 596.5,145.5C 608.482,144.501 620.482,144.168 632.5,144.5C 632.476,150.857 632.81,157.19 633.5,163.5 Z"/></g>
<g><path style="opacity:1" fill="#d8d8d8" d="M 690.5,173.5 C 690.5,182.833 690.5,192.167 690.5,201.5C 706.167,201.5 721.833,201.5 737.5,201.5C 737.5,210.833 737.5,220.167 737.5,229.5C 721.833,229.5 706.167,229.5 690.5,229.5C 690.5,239.5 690.5,249.5 690.5,259.5C 706.833,259.5 723.167,259.5 739.5,259.5C 739.5,268.833 739.5,278.167 739.5,287.5C 712.5,287.5 685.5,287.5 658.5,287.5C 658.5,239.833 658.5,192.167 658.5,144.5C 685.5,144.5 712.5,144.5 739.5,144.5C 739.5,153.833 739.5,163.167 739.5,172.5C 722.991,172.17 706.658,172.504 690.5,173.5 Z"/></g>
<g><path style="opacity:1" fill="#d9d9d9" d="M 782.5,144.5 C 790.979,177.084 799.146,209.75 807,242.5C 815.515,210.107 824.181,177.774 833,145.5C 841.749,144.516 850.582,144.183 859.5,144.5C 867.258,177.289 875.758,209.956 885,242.5C 892.883,210.298 901.05,178.298 909.5,146.5C 921.249,144.553 933.249,143.886 945.5,144.5C 945.5,145.5 945.5,146.5 945.5,147.5C 931.723,193.591 918.39,239.925 905.5,286.5C 893.185,287.499 880.851,287.832 868.5,287.5C 861.994,262.819 855.161,238.152 848,213.5C 847.417,211.998 846.584,210.665 845.5,209.5C 837.23,235.246 829.897,261.246 823.5,287.5C 811.149,287.832 798.815,287.499 786.5,286.5C 773.472,239.719 760.139,193.053 746.5,146.5C 758.12,144.521 770.12,143.854 782.5,144.5 Z"/></g>
<g><path style="opacity:1" fill="#d8d8d8" d="M 954.5,144.5 C 965.167,144.5 975.833,144.5 986.5,144.5C 986.5,192.167 986.5,239.833 986.5,287.5C 975.833,287.5 965.167,287.5 954.5,287.5C 954.5,239.833 954.5,192.167 954.5,144.5 Z"/></g>
<g><path style="opacity:1" fill="#e7e7e7" d="M 1040.5,144.5 C 1029.83,144.5 1019.17,144.5 1008.5,144.5C 1008.5,192.167 1008.5,239.833 1008.5,287.5C 1019.17,287.5 1029.83,287.5 1040.5,287.5C 1029.68,288.495 1018.68,288.828 1007.5,288.5C 1007.5,240.167 1007.5,191.833 1007.5,143.5C 1018.68,143.172 1029.68,143.505 1040.5,144.5 Z"/></g>
<g><path style="opacity:1" fill="#d8d8d8" d="M 1040.5,144.5 C 1059.4,173.294 1078.07,202.294 1096.5,231.5C 1096.56,232.043 1096.89,232.376 1097.5,232.5C 1098.5,203.174 1098.83,173.841 1098.5,144.5C 1109.17,144.5 1119.83,144.5 1130.5,144.5C 1130.5,192.167 1130.5,239.833 1130.5,287.5C 1119.49,287.667 1108.49,287.5 1097.5,287C 1078.79,257.748 1059.96,228.582 1041,199.5C 1040.5,228.831 1040.33,258.165 1040.5,287.5C 1029.83,287.5 1019.17,287.5 1008.5,287.5C 1008.5,239.833 1008.5,192.167 1008.5,144.5C 1019.17,144.5 1029.83,144.5 1040.5,144.5 Z"/></g>
<g><path style="opacity:1" fill="#eeeeee" d="M 1098.5,144.5 C 1098.83,173.841 1098.5,203.174 1097.5,232.5C 1096.89,232.376 1096.56,232.043 1096.5,231.5C 1097.17,202.5 1097.83,173.5 1098.5,144.5 Z"/></g>
<g><path style="opacity:1" fill="#eaeaea" d="M 633.5,163.5 C 635.208,174.626 636.208,185.959 636.5,197.5C 634.792,186.374 633.792,175.041 633.5,163.5 Z"/></g>
<g><path style="opacity:1" fill="#fdfdfd" d="M 413.5,189.5 C 415.284,190.574 416.451,192.24 417,194.5C 421.206,206.284 425.706,217.951 430.5,229.5C 419.854,230.499 409.187,230.832 398.5,230.5C 403.037,216.701 408.037,203.035 413.5,189.5 Z"/></g>
<g><path style="opacity:1" fill="#f5f5f5" d="M 690.5,173.5 C 690.833,173.5 691.167,173.5 691.5,173.5C 691.5,182.5 691.5,191.5 691.5,200.5C 707.009,200.17 722.342,200.504 737.5,201.5C 721.833,201.5 706.167,201.5 690.5,201.5C 690.5,192.167 690.5,182.833 690.5,173.5 Z"/></g>
<g><path style="opacity:1" fill="#eaeaea" d="M 640.5,241.5 C 642.208,252.626 643.208,263.959 643.5,275.5C 641.792,264.374 640.792,253.041 640.5,241.5 Z"/></g>
<g><path style="opacity:1" fill="#ededed" d="M 737.5,201.5 C 738.494,210.986 738.827,220.652 738.5,230.5C 722.833,230.5 707.167,230.5 691.5,230.5C 691.5,239.833 691.5,249.167 691.5,258.5C 707.833,258.5 724.167,258.5 740.5,258.5C 740.5,268.5 740.5,278.5 740.5,288.5C 712.662,288.831 684.995,288.498 657.5,287.5C 657.833,287.5 658.167,287.5 658.5,287.5C 685.5,287.5 712.5,287.5 739.5,287.5C 739.5,278.167 739.5,268.833 739.5,259.5C 723.167,259.5 706.833,259.5 690.5,259.5C 690.5,249.5 690.5,239.5 690.5,229.5C 706.167,229.5 721.833,229.5 737.5,229.5C 737.5,220.167 737.5,210.833 737.5,201.5 Z"/></g>
<g><path style="opacity:1" fill="#ebebeb" d="M 1187.5,258.5 C 1192.46,259.254 1197.46,259.587 1202.5,259.5C 1200.7,260.162 1198.7,260.495 1196.5,260.5C 1193.19,260.657 1190.19,259.991 1187.5,258.5 Z"/></g>
<g><path style="opacity:1" fill="#efefef" d="M 341.5,286.5 C 352.988,287.495 364.655,287.828 376.5,287.5C 364.66,288.825 352.66,288.825 340.5,287.5C 340.624,286.893 340.957,286.56 341.5,286.5 Z"/></g>
<g><path style="opacity:1" fill="#eeeeee" d="M 518.5,282.5 C 518.5,284.5 518.5,286.5 518.5,288.5C 496.327,288.831 474.327,288.497 452.5,287.5C 474.167,287.5 495.833,287.5 517.5,287.5C 517.216,285.585 517.549,283.919 518.5,282.5 Z"/></g>
<g><path style="opacity:1" fill="#cccccc" d="M 703.5,325.5 C 693.148,325.399 682.815,325.733 672.5,326.5C 678.251,324.96 684.251,324.294 690.5,324.5C 695.013,324.501 699.347,324.834 703.5,325.5 Z"/></g>
<g><path style="opacity:1" fill="#a7a7a7" d="M 941.5,390.5 C 941.41,393.152 942.076,395.485 943.5,397.5C 945.125,406.752 945.792,416.085 945.5,425.5C 944.475,428.974 943.808,432.64 943.5,436.5C 936.123,463.254 923.956,487.588 907,509.5C 885.94,536.229 862.44,560.729 836.5,583C 822.167,594.667 807.833,606.333 793.5,618C 786.549,623.458 779.215,628.292 771.5,632.5C 725.67,602.192 684.503,566.192 648,524.5C 628.394,501.963 613.394,476.63 603,448.5C 601.021,441.588 599.521,434.588 598.5,427.5C 598.279,418.134 598.613,408.801 599.5,399.5C 607.318,366.35 626.984,343.35 658.5,330.5C 662.162,330.277 665.495,329.277 668.5,327.5C 669.568,326.566 670.901,326.232 672.5,326.5C 682.815,325.733 693.148,325.399 703.5,325.5C 732.762,330.469 755.428,345.469 771.5,370.5C 804.164,325 846.164,313.5 897.5,336C 919.061,348.715 933.728,366.882 941.5,390.5 Z"/></g>
<g><path style="opacity:1" fill="#bfbfbf" d="M 668.5,327.5 C 665.495,329.277 662.162,330.277 658.5,330.5C 661.505,328.723 664.838,327.723 668.5,327.5 Z"/></g>
<g><path style="opacity:1" fill="#fefefe" d="M 823.5,343.5 C 828.165,342.943 832.498,341.61 836.5,339.5C 877.989,333.996 908.156,349.996 927,387.5C 928.303,391.892 929.47,396.225 930.5,400.5C 930.808,404.36 931.475,408.026 932.5,411.5C 932.806,414.385 932.473,417.052 931.5,419.5C 923.874,404.69 912.874,401.523 898.5,410C 889.651,418.69 888.151,428.523 894,439.5C 904.527,450.808 915.694,451.474 927.5,441.5C 928.167,441.5 928.5,441.833 928.5,442.5C 922.899,458.703 915.399,474.036 906,488.5C 868.111,538.892 823.277,581.892 771.5,617.5C 730.773,588.826 693.606,555.826 660,518.5C 642.492,498.837 628.492,476.837 618,452.5C 614.656,444.083 612.49,435.416 611.5,426.5C 611.295,418.133 611.629,409.8 612.5,401.5C 619.568,371.76 637.568,351.76 666.5,341.5C 669.152,341.59 671.485,340.924 673.5,339.5C 723.789,334.01 756.456,355.677 771.5,404.5C 777.763,382.476 790.096,364.643 808.5,351C 813.243,347.962 818.243,345.462 823.5,343.5 Z"/></g>
<g><path style="opacity:1" fill="#e0e0e0" d="M 673.5,339.5 C 671.485,340.924 669.152,341.59 666.5,341.5C 668.515,340.076 670.848,339.41 673.5,339.5 Z"/></g>
<g><path style="opacity:1" fill="#e4e4e4" d="M 836.5,339.5 C 832.498,341.61 828.165,342.943 823.5,343.5C 827.502,341.39 831.835,340.057 836.5,339.5 Z"/></g>
<g><path style="opacity:1" fill="#c8c8c8" d="M 872.5,363.5 C 868.466,363.505 864.466,363.838 860.5,364.5C 862.679,363.074 865.179,362.408 868,362.5C 869.707,362.508 871.207,362.842 872.5,363.5 Z"/></g>
<g><path style="opacity:1" fill="#a7a7a7" d="M 872.5,363.5 C 886.621,367.054 892.121,376.054 889,390.5C 885.805,400.1 879.138,405.1 869,405.5C 852.577,403.393 845.577,394.06 848,377.5C 850.347,371.322 854.513,366.988 860.5,364.5C 864.466,363.838 868.466,363.505 872.5,363.5 Z"/></g>
<g><path style="opacity:1" fill="#9d9d9d" d="M 726.5,366.5 C 715.346,367.495 704.012,367.828 692.5,367.5C 692.827,377.348 692.494,387.014 691.5,396.5C 691.5,386.5 691.5,376.5 691.5,366.5C 703.167,366.5 714.833,366.5 726.5,366.5 Z"/></g>
<g><path style="opacity:1" fill="#a5a5a5" d="M 1398.5,366.5 C 1438.83,366.5 1479.17,366.5 1519.5,366.5C 1519.5,370.5 1519.5,374.5 1519.5,378.5C 1335.5,378.922 1151.5,379.589 967.5,380.5C 967.5,376.5 967.5,372.5 967.5,368.5C 973.833,368.5 980.167,368.5 986.5,368.5C 1124,368.278 1261.33,367.611 1398.5,366.5 Z"/></g>
<g><path style="opacity:1" fill="#c8c8c8" d="M 727.5,365.5 C 727.5,365.833 727.5,366.167 727.5,366.5C 727.167,366.5 726.833,366.5 726.5,366.5C 714.833,366.5 703.167,366.5 691.5,366.5C 691.5,376.5 691.5,386.5 691.5,396.5C 691.167,396.5 690.833,396.5 690.5,396.5C 690.5,386.167 690.5,375.833 690.5,365.5C 702.833,365.5 715.167,365.5 727.5,365.5 Z"/></g>
<g><path style="opacity:1" fill="#a6a6a6" d="M 726.5,366.5 C 726.833,366.5 727.167,366.5 727.5,366.5C 727.5,376.5 727.5,386.5 727.5,396.5C 737.5,396.5 747.5,396.5 757.5,396.5C 757.5,396.833 757.5,397.167 757.5,397.5C 756.505,408.654 756.172,419.988 756.5,431.5C 746.652,431.173 736.986,431.506 727.5,432.5C 727.5,432.833 727.5,433.167 727.5,433.5C 727.5,443.167 727.5,452.833 727.5,462.5C 715.5,462.5 703.5,462.5 691.5,462.5C 691.827,452.652 691.494,442.986 690.5,433.5C 681.014,432.506 671.348,432.173 661.5,432.5C 661.5,420.833 661.5,409.167 661.5,397.5C 671.348,397.827 681.014,397.494 690.5,396.5C 690.833,396.5 691.167,396.5 691.5,396.5C 692.494,387.014 692.827,377.348 692.5,367.5C 704.012,367.828 715.346,367.495 726.5,366.5 Z"/></g>
<g><path style="opacity:1" fill="#e7e7e7" d="M 727.5,365.5 C 728.494,375.319 728.827,385.319 728.5,395.5C 738.681,395.173 748.681,395.506 758.5,396.5C 758.167,396.5 757.833,396.5 757.5,396.5C 747.5,396.5 737.5,396.5 727.5,396.5C 727.5,386.5 727.5,376.5 727.5,366.5C 727.5,366.167 727.5,365.833 727.5,365.5 Z"/></g>
<g><path style="opacity:1" fill="#d2d2d2" d="M 986.5,367.5 C 986.5,367.833 986.5,368.167 986.5,368.5C 980.167,368.5 973.833,368.5 967.5,368.5C 967.5,372.5 967.5,376.5 967.5,380.5C 966.515,376.366 966.182,372.032 966.5,367.5C 973.167,367.5 979.833,367.5 986.5,367.5 Z"/></g>
<g><path style="opacity:1" fill="#bbbbbb" d="M 1398.5,366.5 C 1261.33,367.611 1124,368.278 986.5,368.5C 986.5,368.167 986.5,367.833 986.5,367.5C 1123.83,366.784 1261.17,366.45 1398.5,366.5 Z"/></g>
<g><path style="opacity:1" fill="#a7a7a7" d="M 552.5,381.5 C 368.166,382.054 183.833,382.72 -0.5,383.5C -0.5,379.167 -0.5,374.833 -0.5,370.5C 183.833,369.947 368.166,369.614 552.5,369.5C 552.5,373.5 552.5,377.5 552.5,381.5 Z"/></g>
<g><path style="opacity:1" fill="#e5e5e5" d="M 1519.5,378.5 C 1519.5,378.833 1519.5,379.167 1519.5,379.5C 1359.5,380.061 1199.5,380.728 1039.5,381.5C 1015.33,381.5 991.331,381.167 967.5,380.5C 1151.5,379.589 1335.5,378.922 1519.5,378.5 Z"/></g>
<g><path style="opacity:1" fill="#e2e2e2" d="M 552.5,381.5 C 528.003,382.332 503.337,382.832 478.5,383C 318.834,383.757 159.167,384.257 -0.5,384.5C -0.5,384.167 -0.5,383.833 -0.5,383.5C 183.833,382.72 368.166,382.054 552.5,381.5 Z"/></g>
<g><path style="opacity:1" fill="#cbcbcb" d="M 941.5,390.5 C 942.924,392.515 943.59,394.848 943.5,397.5C 942.076,395.485 941.41,393.152 941.5,390.5 Z"/></g>
<g><path style="opacity:1" fill="#9c9c9c" d="M 757.5,397.5 C 757.5,409.167 757.5,420.833 757.5,432.5C 747.5,432.5 737.5,432.5 727.5,432.5C 736.986,431.506 746.652,431.173 756.5,431.5C 756.172,419.988 756.505,408.654 757.5,397.5 Z"/></g>
<g><path style="opacity:1" fill="#d1d1d1" d="M 757.5,396.5 C 757.833,396.5 758.167,396.5 758.5,396.5C 758.5,408.833 758.5,421.167 758.5,433.5C 748.167,433.5 737.833,433.5 727.5,433.5C 727.5,433.167 727.5,432.833 727.5,432.5C 737.5,432.5 747.5,432.5 757.5,432.5C 757.5,420.833 757.5,409.167 757.5,397.5C 757.5,397.167 757.5,396.833 757.5,396.5 Z"/></g>
<g><path style="opacity:1" fill="#bbbbbb" d="M 690.5,396.5 C 681.014,397.494 671.348,397.827 661.5,397.5C 661.5,409.167 661.5,420.833 661.5,432.5C 671.348,432.173 681.014,432.506 690.5,433.5C 680.5,433.5 670.5,433.5 660.5,433.5C 660.5,421.167 660.5,408.833 660.5,396.5C 670.5,396.5 680.5,396.5 690.5,396.5 Z"/></g>
<g><path style="opacity:1" fill="#d8d8d8" d="M 599.5,399.5 C 598.613,408.801 598.279,418.134 598.5,427.5C 597.343,419.344 597.177,411.01 598,402.5C 598.232,401.263 598.732,400.263 599.5,399.5 Z"/></g>
<g><path style="opacity:1" fill="#a7a7a7" d="M 815.5,405.5 C 837.247,405.008 845.747,415.341 841,436.5C 834.607,447.109 825.44,450.609 813.5,447C 800.763,440.024 797.263,429.857 803,416.5C 806.127,411.54 810.294,407.873 815.5,405.5 Z"/></g>
<g><path style="opacity:1" fill="#d3d3d3" d="M 930.5,400.5 C 932.217,403.845 932.884,407.511 932.5,411.5C 931.475,408.026 930.808,404.36 930.5,400.5 Z"/></g>
<g><path style="opacity:1" fill="#c6c6c6" d="M 932.5,411.5 C 933.638,414.304 933.805,417.304 933,420.5C 931.893,421.712 931.393,421.379 931.5,419.5C 932.473,417.052 932.806,414.385 932.5,411.5 Z"/></g>
<g><path style="opacity:1" fill="#d2d2d2" d="M 612.5,401.5 C 611.629,409.8 611.295,418.133 611.5,426.5C 610.345,419.345 610.178,412.012 611,404.5C 611.232,403.263 611.732,402.263 612.5,401.5 Z"/></g>
<g><path style="opacity:1" fill="#dedede" d="M 945.5,425.5 C 945.665,428.518 945.498,431.518 945,434.5C 944.722,435.416 944.222,436.082 943.5,436.5C 943.808,432.64 944.475,428.974 945.5,425.5 Z"/></g>
<g><path style="opacity:1" fill="#d7d7d7" d="M 928.5,442.5 C 928.5,441.833 928.167,441.5 927.5,441.5C 927.783,440.711 928.283,440.044 929,439.5C 929.74,440.749 929.573,441.749 928.5,442.5 Z"/></g>
<g><path style="opacity:1" fill="#c1c1c1" d="M 869.5,449.5 C 865.131,449.467 860.798,449.8 856.5,450.5C 858.848,449.048 861.514,448.382 864.5,448.5C 866.369,448.507 868.036,448.84 869.5,449.5 Z"/></g>
<g><path style="opacity:1" fill="#a6a6a6" d="M 869.5,449.5 C 883.204,453.894 888.37,463.228 885,477.5C 879.076,489.161 869.576,493.328 856.5,490C 842.945,482.311 839.778,471.478 847,457.5C 849.501,454.152 852.668,451.818 856.5,450.5C 860.798,449.8 865.131,449.467 869.5,449.5 Z"/></g>
<g><path style="opacity:1" fill="#c2c2c2" d="M 690.5,433.5 C 691.494,442.986 691.827,452.652 691.5,462.5C 703.5,462.5 715.5,462.5 727.5,462.5C 715.345,463.495 703.011,463.829 690.5,463.5C 690.5,453.5 690.5,443.5 690.5,433.5 Z"/></g>
</svg>
